<?xml version="1.0" encoding="UTF-8"?>
<!DOCTYPE svg PUBLIC "-//W3C//DTD SVG 1.1//EN" "http://www.w3.org/Graphics/SVG/1.1/DTD/svg11.dtd">
<!-- Creator: CorelDRAW X8 -->
<svg xmlns="http://www.w3.org/2000/svg" xml:space="preserve" width="210mm" height="297mm" version="1.1" style="shape-rendering:geometricPrecision; text-rendering:geometricPrecision; image-rendering:optimizeQuality; fill-rule:evenodd; clip-rule:evenodd"
viewBox="0 0 21000 29700"
 xmlns:xlink="http://www.w3.org/1999/xlink">
 <defs>
  <style type="text/css">
   <![CDATA[
    .str0 {stroke:black;stroke-width:20}
    .fil0 {fill:#EC268F}
    .fil2 {fill:#EC268F}
    .fil1 {fill:black}
    .fil3 {fill:black;fill-rule:nonzero}
   ]]>
  </style>
 </defs>
 <g id="Camada_x0020_1">
  <metadata id="CorelCorpID_0Corel-Layer"/>
  <g id="_3241650504064">
   <path class="fil0" d="M9880 10398l728 -431c-190,56 -928,406 -1105,510 -276,164 -481,301 -677,494 -281,276 -496,674 -665,1047 -60,136 -123,289 -216,409 -164,-187 -251,-833 -219,-1149 57,-561 275,-802 342,-1056 -346,147 -451,225 -920,257 -389,27 -766,0 -1153,12 -336,9 -689,121 -905,271 -933,644 -521,2205 613,1751 723,-289 760,-1205 230,-1112 -94,16 -165,44 -176,133 130,61 186,3 272,149 209,353 -49,654 -466,720 -275,43 -513,-61 -631,-215 -154,-201 -166,-420 -125,-723 65,-489 434,-739 932,-815 217,-33 1527,-65 1661,17 -22,139 -231,225 -398,705 -168,485 -237,1094 -650,1551 -226,249 -552,319 -756,114 6,-104 87,-142 113,-231 -156,47 -490,218 -417,410 63,96 312,166 451,176 500,38 861,-420 1088,-839 341,-629 498,-1627 773,-1794 -7,93 -41,195 -61,286 -70,333 -97,674 -10,1002 193,733 192,601 247,1230 359,-174 554,-1248 922,-1853 85,-141 316,-431 439,-478 -71,210 -178,400 -248,651 -149,537 -119,1051 88,1575 53,136 123,191 300,156 104,-21 250,-105 307,-166 -278,-52 -367,-169 -463,-402 -381,-919 46,-1784 755,-2362z"/>
   <path class="fil0" d="M15100 12108c-97,387 -82,519 -304,798 -273,340 -519,307 -472,-204 26,-276 157,-625 288,-812 236,-336 587,-176 488,218zm-165 806l0 0c-6,136 -22,271 55,357 215,237 720,-144 701,-412l-64 -20c-94,94 -120,335 -331,277 -99,-67 59,-604 94,-756 40,-176 165,-612 166,-772l-317 -3 -60 195c-311,-489 -1006,-17 -1191,707 -230,901 398,1080 806,586 39,-47 81,-135 141,-159z"/>
   <path class="fil0" d="M10634 11721c163,-54 268,77 286,222 12,94 -60,353 -83,466 -109,543 -676,1034 -710,480 -21,-340 168,-1055 507,-1168zm92 1194l0 0c7,17 4,-16 8,37l-3 138c12,212 164,291 364,237 162,-44 420,-301 394,-470l-51 -15c-86,40 -138,355 -326,272 -123,-64 41,-550 83,-753 35,-166 167,-648 162,-777l-311 0 -59 174c-23,-12 -330,-407 -779,18 -520,492 -636,1434 -190,1551 400,105 638,-366 708,-412z"/>
   <path class="fil1" d="M13536 9117c-379,-417 -604,-544 -1033,-669 -556,-161 -966,-33 -1434,155 -458,184 -1509,724 -1996,1004 -110,63 -189,96 -153,268 52,249 110,176 493,-64 176,-110 342,-216 538,-325 567,-315 1707,-1032 2392,-953 622,71 960,412 1193,584z"/>
   <path class="fil1" d="M10293 10565c-35,-322 153,-405 554,-508 446,-115 685,710 375,885 -456,258 -879,76 -929,-377zm-413 -167l0 0c-43,35 -356,301 -368,356 123,-125 574,-403 714,-434 -24,146 -53,262 22,452 95,243 263,288 296,308 -162,36 -417,23 -559,-7 31,31 113,89 299,106 354,31 737,-49 1057,-168 339,-125 775,-404 959,-662 -151,139 -731,508 -922,501 240,-394 -145,-751 -158,-807 322,-90 1320,188 1847,-597 -264,146 -468,324 -805,379 127,-71 447,-245 513,-424 -292,188 -636,428 -1047,433 119,-37 231,-107 327,-163 80,-46 263,-148 307,-233 -170,109 -339,160 -529,219 -349,106 -704,155 -1048,252 -382,107 -591,267 -905,489z"/>
   <path class="fil0" d="M11415 12046c95,29 60,-16 178,-156 51,-60 143,-150 241,-111 126,65 -28,579 -67,761 -39,186 -152,597 -155,767l351 5c64,-285 111,-601 191,-878 59,-207 215,-652 419,-666 29,89 -2,180 45,247 47,66 147,70 210,41 143,-69 116,-325 9,-414 -146,-122 -332,5 -412,80 -108,102 -155,215 -236,349 -1,-85 136,-580 -353,-463 -156,37 -470,303 -421,438z"/>
   <path class="fil0" d="M12924 12060c97,38 69,-23 190,-175 52,-65 149,-158 220,-60 93,121 -276,1007 -256,1267 18,224 267,310 487,210 129,-59 322,-289 347,-431l-64 -34c-116,109 -141,349 -368,314 -80,-109 -55,-151 -16,-291 29,-100 56,-214 89,-319 54,-172 139,-449 164,-630 39,-276 -194,-374 -434,-282 -127,49 -410,302 -359,431z"/>
   <path class="fil2" d="M13561 10867c-271,69 -213,506 57,437 237,-61 229,-509 -57,-437z"/>
   <path class="fil1 str0" d="M10835 10261c185,0 334,149 334,334 0,184 -149,333 -334,333 -179,0 -325,-141 -333,-318 21,20 50,32 82,32 67,0 121,-54 121,-120 0,-67 -54,-121 -121,-121 -7,0 -15,0 -22,2 60,-86 160,-142 273,-142z"/>
   <path class="fil3" d="M9905 13949l0 82c6,32 23,61 49,87 35,35 78,53 129,53 50,0 93,-18 128,-53 36,-36 54,-78 54,-129 0,-50 -18,-92 -54,-128 -35,-36 -78,-54 -128,-54 -51,0 -94,18 -129,54 -26,26 -43,55 -49,88zm0 252l0 65 -106 0 0 -815 106 0 0 327c51,-53 110,-79 178,-79 80,0 148,28 205,85 57,57 85,125 85,205 0,81 -28,149 -85,206 -57,57 -125,85 -205,85 -68,0 -127,-26 -178,-79zm644 -388c40,-54 88,-82 146,-85l0 110c-39,2 -69,14 -92,37 -34,34 -52,75 -54,122l0 269 -105 0 0 -524 105 0 0 71zm634 216l0 -78c-6,-33 -23,-63 -49,-90 -36,-35 -79,-53 -129,-53 -50,0 -93,18 -129,53 -35,36 -53,79 -53,129 0,50 18,93 53,128 36,36 79,53 129,53 50,0 93,-17 129,-53 26,-26 43,-56 49,-89zm0 -251l0 -36 106 0 0 525 -106 0 0 -66c-51,53 -110,79 -178,79 -80,0 -148,-28 -205,-85 -57,-57 -85,-125 -85,-205 0,-80 28,-149 85,-205 57,-57 125,-85 205,-85 68,0 127,26 178,78zm428 69l-215 0 0 -105 397 0 -239 418 234 0 0 106 -415 0 238 -419zm380 -105l0 524 -105 0 0 -524 105 0zm-53 -216c21,0 38,7 53,21 14,15 22,32 22,53 0,21 -8,38 -22,53 -15,14 -32,21 -53,21 -20,0 -37,-7 -52,-21 -14,-15 -22,-32 -22,-53 0,-21 8,-38 22,-53 15,-14 32,-21 52,-21zm252 -76l0 816 -106 0 0 -816 106 0zm198 292l0 524 -106 0 0 -524 106 0zm-53 -216c20,0 38,7 52,21 15,15 22,32 22,53 0,21 -7,38 -22,53 -14,14 -32,21 -52,21 -20,0 -38,-7 -52,-21 -15,-15 -22,-32 -22,-53 0,-21 7,-38 22,-53 14,-14 32,-21 52,-21zm600 503l0 -78c-6,-33 -23,-63 -49,-90 -36,-35 -79,-53 -129,-53 -50,0 -93,18 -128,53 -36,36 -54,79 -54,129 0,50 18,93 54,128 35,36 78,53 128,53 50,0 93,-17 129,-53 26,-26 43,-56 49,-89zm0 -251l0 -36 106 0 0 525 -106 0 0 -66c-51,53 -110,79 -178,79 -80,0 -148,-28 -205,-85 -56,-57 -85,-125 -85,-205 0,-80 29,-149 85,-205 57,-57 125,-85 205,-85 68,0 127,26 178,78zm296 104l0 384 -106 0 0 -524 106 0 0 61c22,-60 67,-90 133,-90 57,0 102,20 135,60 34,41 51,91 52,152l0 341 -105 0 0 -337c0,-30 -11,-56 -33,-77 -23,-22 -49,-33 -79,-33 -31,0 -57,11 -79,32 -12,12 -20,23 -24,31zm998 229l0 -369 105 0 0 360c0,19 7,34 19,47 13,12 28,18 45,18 42,0 63,-26 63,-78l0 -347 106 0 0 367c-2,45 -19,83 -50,114 -33,34 -72,50 -119,50 -47,0 -86,-16 -116,-49 -31,33 -69,49 -116,49 -47,0 -87,-16 -120,-50 -31,-31 -47,-69 -49,-114l0 -367 106 0 0 347c0,52 21,78 63,78 17,0 32,-6 45,-18 10,-11 16,-23 18,-38zm861 -82l0 -78c-6,-33 -22,-63 -49,-90 -35,-35 -78,-53 -128,-53 -50,0 -93,18 -129,53 -35,36 -53,79 -53,129 0,50 18,93 53,128 36,36 79,53 129,53 50,0 93,-17 128,-53 27,-26 43,-56 49,-89zm0 -251l0 -36 106 0 0 525 -106 0 0 -66c-51,53 -110,79 -177,79 -80,0 -149,-28 -205,-85 -57,-57 -85,-125 -85,-205 0,-80 28,-149 85,-205 56,-57 125,-85 205,-85 67,0 126,26 177,78zm576 -36l-139 239 164 285 -121 0 -103 -176 -102 176 -123 0 165 -285 -138 -239 122 0 76 131 76 -131 123 0z"/>
  </g>
 </g>
</svg>
